# xmcd
#
# Track frame offsets:
# 150
# 17174
# 29036
# 43204
# 61558
# 82717
# 95660
# 109153
# 126581
# 145596
# 165969
# 180957
# 191710
# 204604
# 218736
# 233551
# 251138
# 267573
#
# Disc length: 3847 seconds
#
#
# Revision: 4
# Processed by: cddbd v1.5.2PL0 Copyright (c) Steve Scherf et al.
# Submitted via: FreeRIP 2.945 
#
DISCID=fa0f0512
DTITLE=The Everly Brothers - The Every Brothers - The Best
DYEAR=1999
DGENRE=Country
TTITLE0=Crying In The Rain
TTITLE1=Chathy's Clown
TTITLE2=Bye Bye Love
TTITLE3=The Price Of love
TTITLE4=Lucille
TTITLE5=Claudette
TTITLE6=Gone, Gone, Gone
TTITLE7=You Send Me
TTITLE8=So Sad (To Watch Love Go Bad)
TTITLE9=Blues (Stay Away From Me)
TTITLE10=All I Have To Do Is Dream
TTITLE11=Wake Up Little
TTITLE12=Till I Kissed You
TTITLE13=Temptation
TTITLE14=Bip-Bop-A Lula
TTITLE15=Let It Be Me
TTITLE16=Good Gooly Miss Molly
TTITLE17=Love Is Strage
EXTD=
EXTT0=Atlan
EXTT1=Atlan
EXTT2=Atlan
EXTT3=Atlan
EXTT4=Atlan
EXTT5=Atlan
EXTT6=Atlan
EXTT7=Atlan
EXTT8=Atlan
EXTT9=Atlan
EXTT10=Atlan
EXTT11=Atlan
EXTT12=Atlan
EXTT13=Atlan
EXTT14=Atlan
EXTT15=Atlan
EXTT16=Atlan
EXTT17=Atlan
PLAYORDER=
